<svg id="Layer_1" data-name="Layer 1" xmlns="http://www.w3.org/2000/svg" viewBox="0 0 146.02 42.8"><defs><style>.cls-1,.cls-2{fill:#3921b3;}.cls-1{stroke:#3921b3;fill-rule:evenodd;}.cls-2{font-size:27.86px;font-family:MyriadPro-Bold, Myriad Pro;font-weight:700;}.cls-3{letter-spacing:0em;}.cls-4{letter-spacing:0em;}.cls-5{letter-spacing:-0.01em;}.cls-6{letter-spacing:0.01em;}.cls-7{letter-spacing:0em;}</style></defs><g id="Page-1"><g id="_1-panel_example_1-copy-2" data-name="1-panel_example_1-copy-2"><path id="Fill-1" class="cls-1" d="M1.91,38H3.12L15.53,38h1.2l.72,3.59H15.34a3.7,3.7,0,0,1-.55-2.09.36.36,0,0,0-.22-.33.35.35,0,0,0-.37.12.27.27,0,0,0-.07.18,4,4,0,0,0,.48,2.12H12.37a2.28,2.28,0,0,1-.26-1.34.36.36,0,0,0-.19-.35.34.34,0,0,0-.4.1.44.44,0,0,0-.07.17,2.82,2.82,0,0,0,.2,1.43h-2V39.18A.33.33,0,0,0,9,39a.37.37,0,0,0,0,.18v2.42l-2,0a2.9,2.9,0,0,0,.2-1.44A.34.34,0,0,0,6.63,40a.33.33,0,0,0-.08.25A2.36,2.36,0,0,1,6.3,41.6l-2.23,0a4.19,4.19,0,0,0,.45-2.13A.34.34,0,0,0,4,39.28a.28.28,0,0,0-.1.24,3.66,3.66,0,0,1-.54,2.11H1.22Zm-.15-2.5a.25.25,0,0,1,.17-.1h.64L16,35.34h.67a.22.22,0,0,1,.19.14l.37,1.79s0,0,0,0H15.53l-12.42.08H1.71a.24.24,0,0,0-.15,0H1.37s0,0,0,0l.37-1.79s0,0,0,0ZM8,27.05s.08-.08.11-.08h2.09a.29.29,0,0,0,.22,0l.07.06.14.68-2.76,0Zm-4.3,1.88.17-.17a1.44,1.44,0,0,1,.9-.34h9a1.54,1.54,0,0,1,1.41,1.15l1,5.16H16l-13.45.07H2.41l1-5.19a1.61,1.61,0,0,1,.32-.64ZM5.85,1.24A.25.25,0,0,1,6,1.16H7.1a.25.25,0,0,1,.25.24l2.71,24.92H8.51L5.78,1.41a.29.29,0,0,1,.07-.17ZM5.39.78a.91.91,0,0,0-.25.63l2.71,25a1.18,1.18,0,0,0-.19.11.78.78,0,0,0-.25.44l-.17.81H7l-2.23,0a2.24,2.24,0,0,0-1.32.5,2.14,2.14,0,0,0-.73,1.2l-1,5.34a.75.75,0,0,0-.35.16.93.93,0,0,0-.3.49l-.35,1.8a.65.65,0,0,0,.15.56.66.66,0,0,0,.37.21L.5,41.91a.37.37,0,0,0,.33.39h.66l2,0h0l13.66-.08h.67a.34.34,0,0,0,.32-.38l-.77-3.89a.62.62,0,0,0,.37-.22.66.66,0,0,0,.14-.56l-.37-1.79a.85.85,0,0,0-.65-.65l-1.07-5.32a2.13,2.13,0,0,0-2.05-1.68l-2.23,0h-.2l-.17-.82a.69.69,0,0,0-.46-.54L8,1.4A.91.91,0,0,0,7.09.5H6a.93.93,0,0,0-.64.27Z"/><text class="cls-2" transform="translate(19.63 32.45) scale(1.01 1)"><tspan class="cls-3">C</tspan><tspan class="cls-4" x="16.49" y="0">ho</tspan><tspan class="cls-5" x="48.89" y="0">r</tspan><tspan x="59.25" y="0">e</tspan><tspan class="cls-6" x="73.96" y="0">B</tspan><tspan class="cls-7" x="90.95" y="0">ot!</tspan></text></g></g></svg>